<?xml version="1.0" encoding="utf-8"?>
<!-- Generator: Adobe Illustrator 22.0.1, SVG Export Plug-In . SVG Version: 6.00 Build 0)  -->
<svg version="1.1" id="Layer_1" xmlns="http://www.w3.org/2000/svg" xmlns:xlink="http://www.w3.org/1999/xlink" x="0px" y="0px"
	 viewBox="0 0 100 100" style="enable-background:new 0 0 100 100;" xml:space="preserve">
<g>
	<path d="M64,71.6c0.4,0.4,0.9,0.6,1.4,0.6s1-0.2,1.4-0.6l18.3-18.3c1.6-1.6,1.6-4.2,0-5.8L66.8,29.2c-0.8-0.8-2-0.8-2.8,0
		c-0.8,0.8-0.8,2,0,2.8l16,16H30c-1.1,0-2,0.9-2,2s0.9,2,2,2h50.7L64,68.8C63.2,69.5,63.2,70.8,64,71.6z"/>
	<path d="M83.4,10H16.6C13,10,10,13,10,16.7v67.6c0,3.7,3,6.7,6.6,6.7h66.8c3.7,0,6.6-3,6.6-6.7v-8.8c0-1.1-0.9-2-2-2s-2,0.9-2,2
		v8.8c0,1.5-1.2,2.7-2.6,2.7H16.6c-1.4,0-2.6-1.2-2.6-2.7V16.7c0-1.5,1.2-2.7,2.6-2.7h66.8c1.4,0,2.6,1.2,2.6,2.7v8.8
		c0,1.1,0.9,2,2,2s2-0.9,2-2v-8.8C90,13,87,10,83.4,10z"/>
</g>
</svg>
