<?xml version="1.0" encoding="utf-8"?>
<!-- Generator: Adobe Illustrator 22.0.1, SVG Export Plug-In . SVG Version: 6.00 Build 0)  -->
<svg version="1.1" id="Layer_1" xmlns="http://www.w3.org/2000/svg" xmlns:xlink="http://www.w3.org/1999/xlink" x="0px" y="0px"
	 viewBox="0 0 100 100" style="enable-background:new 0 0 100 100;" xml:space="preserve">
<g>
	<path d="M16.3,84.3C16.3,84.3,16.4,84.3,16.3,84.3l21.9-0.7c0.8,0,1.5-0.3,2.1-0.9l44.9-44.9c1.2-1.2,1.2-3.1,0-4.3L64,12.3
		c-1.2-1.2-3.1-1.2-4.3,0L14.8,57.2c-0.6,0.6-0.9,1.3-0.9,2.1l-0.7,21.8c0,0.8,0.3,1.7,0.9,2.3C14.7,83.9,15.5,84.3,16.3,84.3z
		 M17.9,59.8l44-44l19.8,19.8L76,41.3L60.5,25.8c-0.8-0.8-2-0.8-2.8,0c-0.8,0.8-0.8,2,0,2.8l15.5,15.5L39.2,78.1L23,61.8
		c-0.8-0.8-2-0.8-2.8,0c-0.8,0.8-0.8,2,0,2.8l15,15L25.6,80l-8.1-8.1L17.9,59.8z M17.4,77.4l2.8,2.8l-2.9,0.1L17.4,77.4z"/>
</g>
</svg>
